<svg width="606" height="263" viewBox="0 0 606 263" fill="none" xmlns="http://www.w3.org/2000/svg">
  <path d="M160.493 86.1396H155.047L131.024 146.358L106.68 86.1396H101.555L128.461 149.882H133.266L160.493 86.1396Z" fill="#135AB7"/>
  <path d="M167.219 149.882H172.024V103.116H167.219V149.882Z" fill="#135AB7"/>
  <path d="M212.704 115.929L217.188 114.327C215.48 106.213 209.5 102.155 199.25 102.155C188.787 102.582 183.235 106.96 182.594 115.288C181.954 122.121 187.933 126.499 200.532 128.421C210.568 129.916 215.266 133.119 214.625 138.03C214.198 144.009 209.5 146.999 200.532 146.999C191.777 147.213 186.652 143.476 185.157 135.788L180.672 137.069C183.235 146.465 189.855 151.056 200.532 150.843C212.704 150.629 219.003 146.252 219.43 137.71C219.857 130.877 214.092 126.499 202.133 124.577C191.243 122.869 186.224 119.772 187.079 115.288C187.292 109.309 191.563 106.319 199.891 106.319C206.938 106.319 211.209 109.522 212.704 115.929Z" fill="#135AB7"/>
  <path d="M262.672 117.53L267.477 116.249C264.701 107.28 258.295 102.582 248.258 102.155C235.232 102.796 228.399 111.017 227.758 126.819C227.972 142.408 234.912 150.416 248.579 150.843C259.683 151.056 266.196 145.825 268.118 135.147L263.313 133.866C262.245 142.408 257.441 146.785 248.899 146.999C238.435 146.572 233.097 139.845 232.883 126.819C233.097 113.366 238.435 106.533 248.899 106.319C255.946 106.746 260.537 110.483 262.672 117.53Z" fill="#135AB7"/>
  <path d="M294.383 106.319C283.279 106.746 277.62 113.793 277.407 127.46C277.834 140.059 283.493 146.679 294.383 147.319C305.06 147.106 310.612 140.379 311.04 127.14C310.399 114.114 304.847 107.174 294.383 106.319ZM294.063 150.843C280.183 149.989 272.922 142.194 272.282 127.46C272.922 111.017 280.503 102.582 295.024 102.155C308.264 102.796 315.204 111.017 315.844 126.819C315.631 142.621 308.37 150.629 294.063 150.843Z" fill="#135AB7"/>
  <path d="M358.446 103.437H362.93V149.882H358.446V140.913C355.029 147.106 349.477 150.416 341.79 150.843C330.472 151.056 324.92 145.291 325.133 133.546V103.116H329.618V132.905C329.404 142.515 333.782 147.213 342.75 146.999C352.146 146.572 357.378 141.447 358.446 131.624V103.437Z" fill="#135AB7"/>
  <path d="M403.93 115.929L408.415 114.327C406.706 106.213 400.727 102.155 390.477 102.155C380.014 102.582 374.461 106.96 373.821 115.288C373.18 122.121 379.159 126.499 391.758 128.421C401.795 129.916 406.493 133.119 405.852 138.03C405.425 144.009 400.727 146.999 391.758 146.999C383.003 147.213 377.878 143.476 376.383 135.788L371.899 137.069C374.461 146.465 381.081 151.056 391.758 150.843C403.93 150.629 410.23 146.252 410.657 137.71C411.084 130.877 405.318 126.499 393.36 124.577C382.469 122.869 377.451 119.772 378.305 115.288C378.519 109.309 382.79 106.319 391.118 106.319C398.165 106.319 402.435 109.522 403.93 115.929Z" fill="#135AB7"/>
  <path d="M431.157 149.562V141.874H423.469V149.562H431.157Z" fill="#135AB7"/>
  <path d="M491.696 115.929L496.18 114.327C494.472 106.213 488.493 102.155 478.243 102.155C467.779 102.582 462.227 106.96 461.586 115.288C460.946 122.121 466.925 126.499 479.524 128.421C489.56 129.916 494.258 133.119 493.618 138.03C493.191 144.009 488.493 146.999 479.524 146.999C470.769 147.213 465.644 143.476 464.149 135.788L459.665 137.069C462.227 146.465 468.847 151.056 479.524 150.843C491.696 150.629 497.995 146.252 498.422 137.71C498.849 130.877 493.084 126.499 481.125 124.577C470.235 122.869 465.217 119.772 466.071 115.288C466.284 109.309 470.555 106.319 478.883 106.319C485.93 106.319 490.201 109.522 491.696 115.929Z" fill="#135AB7"/>
  <path d="M450.559 103.023C450.325 141.39 450.325 159.689 450.325 171.598C450.325 183.507 452.593 216.338 454.63 228.825C456.668 241.312 449.913 241.891 448.537 241.891C447.161 241.891 440.712 241.602 442.29 230.277C443.868 218.951 446.218 182.208 446.218 171.598C446.218 160.988 446.218 132.976 445.741 103.023H450.559Z" fill="#135AB7"/>
</svg>
